<svg xmlns="http://www.w3.org/2000/svg" viewBox="0 0 480 360" fill="none" role="img" aria-label="Tarde na fazenda">
  <defs>
    <linearGradient id="cds-hero-afternoon-sky" x1="0" y1="0" x2="0" y2="1">
      <stop offset="0%" stop-color="#7EB6E8"/>
      <stop offset="40%" stop-color="#B5D7F4"/>
      <stop offset="100%" stop-color="#EAF4FC"/>
    </linearGradient>
    <linearGradient id="cds-hero-afternoon-sun" x1="0" y1="0" x2="1" y2="1">
      <stop offset="0%" stop-color="#FFE082"/>
      <stop offset="100%" stop-color="#F0B429"/>
    </linearGradient>
  </defs>
  <rect width="480" height="360" fill="url(#cds-hero-afternoon-sky)"/>
  <circle cx="248" cy="78" r="48" fill="url(#cds-hero-afternoon-sun)"/>
  <circle cx="248" cy="78" r="78" fill="#FFD978" opacity="0.18"/>
  <ellipse cx="88" cy="112" rx="44" ry="15" fill="#FFFFFF" opacity="0.85"/>
  <ellipse cx="116" cy="112" rx="24" ry="11" fill="#FFFFFF" opacity="0.9"/>
  <ellipse cx="380" cy="118" rx="50" ry="16" fill="#FFFFFF" opacity="0.75"/>
  <ellipse cx="408" cy="118" rx="28" ry="12" fill="#FFFFFF" opacity="0.8"/>
  <path d="M0 236 C95 208 175 228 260 242 C350 258 410 220 480 236 L480 360 L0 360 Z" fill="#8DB88A"/>
  <path d="M0 270 C105 244 185 262 275 276 C365 290 420 258 480 274 L480 360 L0 360 Z" fill="#6FA06C"/>
  <path d="M0 310 C90 292 170 306 260 316 C350 326 410 304 480 318 L480 360 L0 360 Z" fill="#58875A"/>
  <path d="M312 246 L348 220 L384 246 L384 308 L312 308 Z" fill="#C17A52"/>
  <rect x="312" y="246" width="72" height="62" fill="#D08A62"/>
  <rect x="340" y="268" width="16" height="40" rx="2" fill="#7A4A2E"/>
  <rect x="322" y="256" width="12" height="12" rx="1" fill="#FFE08A" opacity="0.65"/>
  <rect x="362" y="256" width="12" height="12" rx="1" fill="#FFE08A" opacity="0.5"/>
  <ellipse cx="84" cy="266" rx="20" ry="24" fill="#4F8A52"/>
  <rect x="80" y="278" width="8" height="30" fill="#5C4030"/>
  <ellipse cx="438" cy="268" rx="18" ry="22" fill="#4F8A52"/>
  <rect x="434" y="280" width="8" height="28" fill="#5C4030"/>
  <path d="M36 320 H468" stroke="#8B7355" stroke-width="2" opacity="0.5"/>
  <path d="M56 304 V320 M96 304 V320 M136 304 V320 M176 304 V320 M256 304 V320 M416 304 V320" stroke="#8B7355" stroke-width="2" opacity="0.45"/>
</svg>
