<svg xmlns="http://www.w3.org/2000/svg" viewBox="0 0 480 360" fill="none" role="img" aria-label="Noite na fazenda">
  <defs>
    <linearGradient id="cds-hero-night-sky" x1="0" y1="0" x2="0" y2="1">
      <stop offset="0%" stop-color="#0B1220"/>
      <stop offset="50%" stop-color="#152034"/>
      <stop offset="100%" stop-color="#1E293B"/>
    </linearGradient>
  </defs>
  <rect width="480" height="360" fill="url(#cds-hero-night-sky)"/>
  <!-- estrelas -->
  <circle cx="72" cy="48" r="1.5" fill="#F8FAFC" opacity="0.9"/>
  <circle cx="118" cy="70" r="1.1" fill="#F8FAFC" opacity="0.7"/>
  <circle cx="168" cy="36" r="1.3" fill="#F8FAFC" opacity="0.85"/>
  <circle cx="210" cy="86" r="1" fill="#F8FAFC" opacity="0.55"/>
  <circle cx="258" cy="42" r="1.4" fill="#F8FAFC" opacity="0.8"/>
  <circle cx="302" cy="74" r="1.2" fill="#F8FAFC" opacity="0.65"/>
  <circle cx="348" cy="30" r="1.6" fill="#F8FAFC" opacity="0.9"/>
  <circle cx="392" cy="62" r="1.1" fill="#F8FAFC" opacity="0.7"/>
  <circle cx="430" cy="44" r="1.3" fill="#F8FAFC" opacity="0.75"/>
  <circle cx="96" cy="110" r="1" fill="#F8FAFC" opacity="0.5"/>
  <circle cx="190" cy="56" r="0.9" fill="#F8FAFC" opacity="0.6"/>
  <circle cx="440" cy="100" r="1.2" fill="#F8FAFC" opacity="0.7"/>
  <!-- lua -->
  <circle cx="360" cy="96" r="24" fill="#E2E8F0" opacity="0.95"/>
  <circle cx="370" cy="90" r="18" fill="#152034"/>
  <!-- nuvens discretas -->
  <ellipse cx="108" cy="128" rx="48" ry="14" fill="#334155" opacity="0.45"/>
  <ellipse cx="280" cy="118" rx="36" ry="11" fill="#334155" opacity="0.35"/>
  <!-- colinas / campos -->
  <path d="M0 236 C95 208 175 228 255 242 C345 258 405 222 480 238 L480 360 L0 360 Z" fill="#0B1220"/>
  <path d="M0 274 C100 248 185 266 275 280 C365 294 420 262 480 280 L480 360 L0 360 Z" fill="#020617"/>
  <!-- celeiro / sítio -->
  <path d="M318 248 L352 226 L386 248 L386 312 L318 312 Z" fill="#1E293B"/>
  <rect x="318" y="248" width="68" height="64" fill="#243044"/>
  <rect x="344" y="272" width="16" height="40" rx="2" fill="#0F172A"/>
  <rect x="326" y="258" width="12" height="12" rx="1" fill="#FBBF24" opacity="0.9"/>
  <rect x="366" y="258" width="12" height="12" rx="1" fill="#FBBF24" opacity="0.75"/>
  <!-- árvores -->
  <ellipse cx="88" cy="268" rx="18" ry="22" fill="#1E293B"/>
  <rect x="84" y="278" width="8" height="28" fill="#020617"/>
  <ellipse cx="434" cy="270" rx="16" ry="20" fill="#1E293B"/>
  <rect x="430" y="280" width="8" height="26" fill="#020617"/>
  <!-- cerca -->
  <path d="M40 322 H470" stroke="#334155" stroke-width="2" opacity="0.7"/>
  <path d="M60 306 V322 M100 306 V322 M140 306 V322 M180 306 V322 M260 306 V322 M420 306 V322" stroke="#334155" stroke-width="2" opacity="0.65"/>
</svg>
